<svg width="53" height="53" viewBox="0 0 53 53" fill="none" xmlns="http://www.w3.org/2000/svg">
<circle cx="26.5" cy="26.5" r="26.5" fill="#FE5F55"/>
<path d="M17.8 34L20.6 16.375H26.55C29.4167 16.375 31.6333 17.05 33.2 18.4C34.7667 19.7333 35.55 21.6 35.55 24C35.5667 25.8833 35.1917 27.5833 34.425 29.1C33.6583 30.6167 32.5167 31.8167 31 32.7C29.5 33.5667 27.6333 34 25.4 34H17.8ZM22.175 30.825H25.45C26.8333 30.825 27.9667 30.5417 28.85 29.975C29.75 29.3917 30.4167 28.5917 30.85 27.575C31.2833 26.5583 31.5 25.3833 31.5 24.05C31.5 22.6 31.0833 21.4917 30.25 20.725C29.4167 19.9417 28.1833 19.55 26.55 19.55H23.975L22.175 30.825Z" fill="white"/>
</svg>
